<svg width="36" height="32" viewBox="0 0 36 32" fill="none" xmlns="http://www.w3.org/2000/svg">
<g clip-path="url(#clip0_9377_211)">
<path d="M13.7333 13.4095C12.5143 13.4095 11.4476 14.4762 11.4476 15.6952V16.7619C11.4476 17.981 12.5143 19.0476 13.7333 19.0476C14.9524 19.0476 16.0191 17.981 16.0191 16.7619V15.6952C16.0191 14.3238 14.9524 13.4095 13.7333 13.4095Z" fill="#646464"/>
<path d="M23.9429 15.2381C22.7239 15.2381 21.6572 16.3048 21.6572 17.5238V18.5905C21.6572 19.8095 22.7239 20.8762 23.9429 20.8762C25.162 20.8762 26.2287 19.8095 26.2287 18.5905V17.5238C26.0763 16.1524 25.162 15.2381 23.9429 15.2381Z" fill="#646464"/>
<path d="M15.562 4.57143L12.8191 0.761906H0.781006V31.3905H35.0667V4.57143H15.562ZM10.5334 18.8952C10.5334 19.0476 10.381 19.2 10.2286 19.2C8.70482 19.9619 7.79053 21.181 7.79053 22.4V25.6C7.79053 25.9048 7.48577 26.2095 7.18101 26.2095C6.87624 26.0571 6.57148 25.9048 6.57148 25.4476V22.2476C6.57148 20.5714 7.79053 19.0476 9.77148 17.981C10.0762 17.8286 10.381 17.981 10.5334 18.2857C10.5334 18.5905 10.5334 18.7429 10.5334 18.8952ZM13.7334 20.1143C11.9048 20.1143 10.381 18.5905 10.381 16.7619V15.6952C10.381 13.8667 11.9048 12.3429 13.7334 12.3429C15.562 12.3429 17.0858 13.8667 17.0858 15.6952V16.7619C17.2381 18.5905 15.7143 20.1143 13.7334 20.1143ZM17.8477 18.1333C18.4572 18.4381 19.0667 18.7429 19.5239 19.2L19.8286 19.5048L18.762 20.1143L18.6096 19.9619C18.3048 19.6571 17.8477 19.3524 17.3905 19.2C17.0858 19.0476 16.9334 18.7429 17.0858 18.4381C17.2381 18.1333 17.5429 18.1333 17.8477 18.1333ZM20.2858 21.0286C18.762 21.7905 17.8477 23.0095 17.8477 24.2286V26.0571C17.8477 26.3619 17.5429 26.6667 17.2381 26.6667C16.9334 26.6667 16.6286 26.3619 16.6286 26.0571V24.2286C16.6286 22.5524 17.8477 21.0286 19.8286 19.9619C20.1334 19.8095 20.4381 19.9619 20.5905 20.2667C20.7429 20.5714 20.5905 20.8762 20.2858 21.0286ZM23.9429 21.7905C22.1143 21.7905 20.5905 20.2667 20.5905 18.4381V17.3714C20.5905 15.5429 22.1143 14.019 23.9429 14.019C25.7715 14.019 27.2953 15.5429 27.2953 17.3714V18.4381C27.2953 20.419 25.7715 21.7905 23.9429 21.7905ZM30.4953 24.6857C30.1905 24.6857 29.8858 24.381 29.8858 24.0762C29.8858 22.8571 28.9715 21.6381 27.4477 20.8762C27.1429 20.7238 26.9905 20.419 27.1429 20.1143C27.2953 19.8095 27.6001 19.6571 27.9048 19.8095C29.8858 20.7238 31.1048 22.2476 31.1048 24.0762C30.9524 24.5333 30.8001 24.6857 30.4953 24.6857ZM33.2381 8.8381H18.762L16.9334 6.24762H33.3905V8.8381H33.2381Z" fill="#646464"/>
</g>
<defs>
<clipPath id="clip0_9377_211">
<rect width="36" height="32" fill="white"/>
</clipPath>
</defs>
</svg>
