<svg width="20" height="20" viewBox="0 0 20 20" fill="none" xmlns="http://www.w3.org/2000/svg">
<path d="M9.02129 17.2113C9.02129 17.2113 8.23854 15.5333 8.65704 13.1578C9.20279 10.0603 14.4223 7.5295 14.4223 7.5295C7.19679 9.79775 4.33379 12.6513 9.02129 17.2113Z" fill="#C70A1A"/>
<path d="M9.02103 17.2113C9.02103 17.2113 7.71503 14.6098 8.45528 11.7965C9.48028 7.8965 15.938 5.15775 15.938 5.15775C6.38478 7.07875 2.18378 12.0593 9.02103 17.2113Z" fill="#9E0F05"/>
<path d="M9.02181 17.212C8.49681 16.4348 6.36581 13.746 6.84681 10.639C7.46581 6.639 17.1733 2.789 17.1733 2.789C5.08181 5.7505 -3.60694 11.12 9.02331 17.214" fill="#ED0000"/>
</svg>
