<svg width="22" height="22" viewBox="0 0 22 22" fill="none" xmlns="http://www.w3.org/2000/svg">
<path d="M10.0424 18.189C10.0424 18.189 9.27556 16.5116 9.70715 14.1632C10.2345 11.0479 15.4582 8.55579 15.4582 8.55579C8.22134 10.7605 5.39342 13.5885 10.0424 18.1896" fill="#C70A1A"/>
<path d="M10.0423 18.189C10.0423 18.189 8.74807 15.6011 9.46703 12.8211C10.4734 8.89107 16.896 6.15894 16.896 6.15894C7.40649 8.07632 3.23644 13.0127 10.0423 18.189Z" fill="#9E0F05"/>
<path d="M10.0423 18.189C9.51496 17.4221 7.40653 14.7379 7.88548 11.6226C8.46075 7.64467 18.1419 3.81042 18.1419 3.81042C6.11177 6.73414 -2.56304 12.1021 10.0418 18.189" fill="#ED0000"/>
</svg>
