<svg width="22" height="22" viewBox="0 0 22 22" fill="none" xmlns="http://www.w3.org/2000/svg">
<path d="M4.46605 15.686L5.14805 16.863C5.29105 17.105 5.48905 17.303 5.73105 17.446L8.16205 13.244H3.30005C3.30005 13.519 3.36605 13.794 3.50905 14.036L4.46605 15.686Z" fill="#858585"/>
<path d="M11 8.30503L8.56905 4.10303C8.32705 4.24603 8.12905 4.43303 7.98605 4.68603L3.50905 12.452C3.37705 12.694 3.30005 12.969 3.30005 13.244H8.15105L11 8.30503Z" fill="#6E6E6E"/>
<path d="M16.269 17.446C16.511 17.303 16.709 17.116 16.852 16.863L17.138 16.379L18.491 14.047C18.634 13.805 18.7 13.53 18.7 13.255H13.849L14.883 15.279L16.269 17.446Z" fill="#ADADAD"/>
<path d="M11 8.30504L13.431 4.10304C13.189 3.96004 12.914 3.89404 12.639 3.89404H9.37196C9.08596 3.89404 8.81096 3.97104 8.57996 4.10304L11 8.30504Z" fill="#595959"/>
<path d="M13.8491 13.244H8.15109L5.72009 17.446C5.96209 17.589 6.23709 17.655 6.51209 17.655H15.4771C15.7631 17.655 16.0381 17.578 16.2691 17.446L13.8491 13.244Z" fill="#959595"/>
<path d="M16.247 8.56903L14.003 4.68603C13.86 4.44403 13.662 4.24603 13.42 4.10303L11 8.30503L13.849 13.244H18.689C18.689 12.969 18.623 12.694 18.48 12.452L16.247 8.56903Z" fill="#A3A3A3"/>
</svg>
