<svg preserveAspectRatio="none" width="100%" height="100%" overflow="visible" style="display: block;" viewBox="0 0 15 15" fill="none" xmlns="http://www.w3.org/2000/svg">
<g id="Frame 1">
<path id="Vector" d="M6.18436 14.3786C6.18436 14.3786 5.41752 12.7012 5.8491 10.3528C6.37648 7.23751 11.6002 4.74539 11.6002 4.74539C4.3633 6.95015 1.53538 9.77807 6.18436 14.3792" fill="var(--fill-0, #C70A1A)"/>
<path id="Vector_2" d="M6.18425 14.3786C6.18425 14.3786 4.89003 11.7907 5.60898 9.01071C6.61531 5.08067 13.038 2.34854 13.038 2.34854C3.54844 4.26593 -0.621601 9.20229 6.18425 14.3786Z" fill="var(--fill-0, #9E0F05)"/>
<path id="Vector_3" d="M6.18431 14.3786C5.65693 13.6117 3.5485 10.9275 4.02744 7.81218C4.60271 3.83425 14.2839 0 14.2839 0C2.25374 2.92371 -6.42107 8.29166 6.18377 14.3786" fill="var(--fill-0, #ED0000)"/>
</g>
</svg>
