<svg preserveAspectRatio="none" width="100%" height="100%" overflow="visible" style="display: block;" viewBox="0 0 110 36" fill="none" xmlns="http://www.w3.org/2000/svg">
<g id="Ebene_1">
<path id="Vector" d="M33.9601 23.3433L33.2177 21.1761H28.959L28.216 23.3433H26.4737L30.4288 12.5525H31.7479L35.7029 23.3433H33.9601ZM31.1262 14.9927L29.4439 19.7819H32.7628L31.1262 14.9927Z" fill="var(--fill-0, white)"/>
<path id="Vector_2" d="M43.1916 23.3433L40.9182 18.7965H38.8717V23.3433H37.2351V12.5525H41.4192C43.4652 12.5525 44.7687 13.8711 44.7687 15.7051C44.7687 17.2511 43.8289 18.236 42.6165 18.5691L45.1018 23.3433H43.1916ZM41.2969 14.0229H38.8717V17.4024H41.2969C42.388 17.4024 43.1304 16.7812 43.1304 15.7201C43.1304 14.6591 42.388 14.0229 41.2969 14.0229Z" fill="var(--fill-0, white)"/>
<path id="Vector_3" d="M47.162 23.3433V12.5525H54.0578V14.0229H48.8008V17.1749H53.2869V18.6302H48.7987V21.8735H54.0556V23.3433H47.162Z" fill="var(--fill-0, white)"/>
<path id="Vector_4" d="M59.1679 23.4342C57.5463 23.4342 56.3946 23.055 55.3491 22.0095L56.422 20.9334C57.2105 21.7214 58.1047 21.9795 59.1958 21.9795C60.6206 21.9795 61.4236 21.3728 61.4236 20.3122C61.4236 19.8268 61.3024 19.4481 60.9993 19.1906C60.7263 18.9481 60.3626 18.8119 59.8192 18.7362L58.5462 18.5538C57.667 18.4176 56.9852 18.1446 56.5153 17.6902C55.9848 17.2074 55.7107 16.5101 55.7107 15.6137C55.7107 13.7362 57.0748 12.4617 59.3176 12.4617C60.7574 12.4617 61.7422 12.8254 62.6665 13.689L61.6355 14.7195C60.9682 14.0833 60.1802 13.8864 59.2559 13.8864C57.983 13.8864 57.3006 14.5838 57.3006 15.5686C57.3006 15.9624 57.4079 16.3261 57.6949 16.5685C57.9674 16.811 58.285 16.9628 58.875 17.0513L60.1625 17.2487C61.1479 17.4 61.6929 17.6274 62.1628 18.0534C62.7389 18.5839 63.042 19.3263 63.042 20.2661C63.0458 22.252 61.4392 23.4342 59.1679 23.4342Z" fill="var(--fill-0, white)"/>
<path id="Vector_5" d="M67.665 18.3459C67.0337 18.3459 66.4166 18.1587 65.8918 17.808C65.3669 17.4573 64.9578 16.9588 64.7162 16.3756C64.4746 15.7924 64.4114 15.1506 64.5346 14.5315C64.6578 13.9124 64.9617 13.3436 65.4081 12.8973C65.8545 12.4509 66.4232 12.1469 67.0423 12.0238C67.6615 11.9006 68.3032 11.9638 68.8864 12.2054C69.4696 12.447 69.9681 12.8561 70.3188 13.3809C70.6695 13.9058 70.8567 14.5229 70.8567 15.1542C70.8568 15.5733 70.7743 15.9884 70.6139 16.3757C70.4535 16.7629 70.2184 17.1148 69.9221 17.4112C69.6257 17.7076 69.2738 17.9427 68.8865 18.1031C68.4992 18.2635 68.0842 18.346 67.665 18.3459ZM67.665 12.5525C66.237 12.5525 65.1084 13.6988 65.1084 15.1536C65.1084 16.6084 66.2349 17.7542 67.665 17.7542C69.0951 17.7542 70.213 16.6084 70.213 15.1536C70.213 13.6988 69.0919 12.5525 67.665 12.5525ZM68.335 16.8729L67.6296 15.5061H67.1892V16.8729H66.5541V13.4263H67.8501C68.5024 13.4263 68.9615 13.9091 68.9615 14.4847C68.9615 14.9675 68.6617 15.2893 68.2824 15.4192L69.0495 16.8739L68.335 16.8729ZM67.7707 13.9633H67.1892V15.0034H67.7707C68.1059 15.0034 68.335 14.7744 68.335 14.4836C68.335 14.1929 68.1059 13.9644 67.7707 13.9644V13.9633Z" fill="var(--fill-0, white)"/>
<path id="Vector_6" d="M75.8283 12.5566H77.4108V18.1145H77.4419L81.7446 12.5566H83.6221L80.2732 16.8121L83.9745 23.3468H82.097L79.2486 18.07L77.4108 20.0623V23.3484H75.8283V12.5566Z" fill="var(--fill-0, white)"/>
<path id="Vector_7" d="M84.9693 15.6637H86.4627V20.2448C86.4627 20.7633 86.6038 21.1683 86.886 21.4598C87.1681 21.7512 87.5218 21.897 87.947 21.897C88.3762 21.897 88.7275 21.7512 89.0011 21.4598C89.2747 21.1683 89.4133 20.7633 89.4168 20.2448V15.6637H90.9108V23.3469H89.4163V22.5251H89.3879C88.8961 23.1331 88.254 23.437 87.4616 23.437C86.845 23.4274 86.2888 23.196 85.7927 22.7429C85.2531 22.2998 84.9784 21.6448 84.9688 20.778L84.9693 15.6637Z" fill="var(--fill-0, white)"/>
<path id="Vector_8" d="M97.5573 22.5449C97.066 23.1189 96.4239 23.4157 95.631 23.4354C95.1822 23.4257 94.7978 23.3295 94.4777 23.1468C94.1496 22.974 93.8636 22.7311 93.6398 22.4355C93.4342 22.1937 93.2981 21.8655 93.2316 21.4506C93.1508 21.0572 93.1102 20.4055 93.1098 19.4953C93.1098 18.5723 93.1504 17.9156 93.2316 17.5251C93.2981 17.1317 93.4342 16.8132 93.6398 16.5697C94.0597 15.926 94.7234 15.5923 95.631 15.5687C95.9985 15.5654 96.3616 15.6487 96.691 15.8117C97.0068 15.9948 97.2979 16.2174 97.5573 16.4742V12.5583H99.0513V23.3469H97.5573V22.5449ZM96.0875 17.1072C95.7335 17.1072 95.4635 17.169 95.2775 17.2928C95.0733 17.4246 94.9152 17.6168 94.8253 17.8426C94.7322 18.086 94.6719 18.3407 94.6461 18.6001C94.6175 18.8919 94.6032 19.1914 94.6032 19.4986C94.603 19.7838 94.6173 20.0688 94.6461 20.3526C94.6698 20.6218 94.7301 20.8865 94.8253 21.1395C94.9206 21.362 95.0775 21.5526 95.2775 21.6888C95.4638 21.8279 95.7338 21.8973 96.0875 21.8969C96.4412 21.8966 96.7209 21.8224 96.9265 21.6743C97.1261 21.5382 97.275 21.3397 97.3497 21.11C97.4494 20.8602 97.5145 20.598 97.5434 20.3306C97.5523 20.0484 97.557 19.7712 97.5573 19.4991C97.5573 19.2019 97.5527 18.9173 97.5434 18.6451C97.5129 18.3851 97.4478 18.1304 97.3497 17.8877C97.2753 17.6578 97.1264 17.4592 96.9265 17.3234C96.7209 17.1792 96.4412 17.1072 96.0875 17.1072Z" fill="var(--fill-0, white)"/>
<path id="Vector_9" d="M100.607 19.4986C100.607 18.6879 100.672 18.0651 100.8 17.6302C100.921 17.23 101.132 16.8628 101.417 16.5574C101.623 16.302 101.909 16.0737 102.276 15.8724C102.639 15.6814 103.105 15.5809 103.674 15.5709C104.261 15.5806 104.737 15.6816 105.1 15.874C105.458 16.0767 105.735 16.3063 105.932 16.5627C106.231 16.8598 106.448 17.2295 106.561 17.6356C106.68 18.0701 106.739 18.6918 106.739 19.5008C106.739 20.3097 106.68 20.926 106.562 21.3498C106.444 21.763 106.228 22.1415 105.931 22.4527C105.826 22.5752 105.708 22.6866 105.58 22.7853C105.439 22.9195 105.276 23.0274 105.097 23.1039C104.734 23.316 104.259 23.4269 103.671 23.4365C103.103 23.4269 102.638 23.316 102.277 23.1039C101.909 22.9112 101.623 22.6941 101.418 22.4527C101.136 22.1334 100.925 21.7573 100.8 21.3498C100.672 20.925 100.607 20.3079 100.607 19.4986ZM105.247 19.5131C105.247 18.9638 105.223 18.5629 105.176 18.3104C105.131 18.0765 105.03 17.8571 104.881 17.6715C104.762 17.4905 104.592 17.3486 104.392 17.2633C104.169 17.1553 103.922 17.1018 103.674 17.1072C103.43 17.1049 103.19 17.1583 102.97 17.2633C102.771 17.3563 102.599 17.4965 102.467 17.6715C102.333 17.8644 102.238 18.0814 102.187 18.3104C102.129 18.5625 102.1 18.9586 102.101 19.4986C102.101 20.0386 102.13 20.4297 102.187 20.6718C102.238 20.91 102.333 21.1366 102.467 21.3402C102.61 21.4996 102.781 21.6328 102.97 21.7339C103.188 21.8424 103.43 21.8976 103.674 21.8948C103.923 21.9008 104.17 21.8455 104.392 21.7339C104.582 21.6406 104.749 21.5061 104.881 21.3402C105.031 21.1439 105.132 20.9148 105.176 20.6718C105.223 20.4239 105.247 20.0377 105.247 19.5131H105.247Z" fill="var(--fill-0, white)"/>
<path id="Vector_10" d="M32.062 31.3465C31.9433 32.0099 31.675 32.5093 31.2573 32.8448C30.8397 33.1802 30.3343 33.3476 29.7414 33.3469C29.4129 33.3543 29.0864 33.2954 28.7812 33.1736C28.5064 33.0569 28.256 32.8895 28.0431 32.6801C27.8941 32.5352 27.7697 32.3671 27.6746 32.1823C27.5861 32.0037 27.5231 31.8135 27.4873 31.6174C27.4471 31.3958 27.4235 31.1715 27.4165 30.9464C27.4076 30.7035 27.4031 30.4309 27.4031 30.1283C27.4031 29.8258 27.4076 29.5531 27.4165 29.3103C27.4235 29.085 27.4472 28.8605 27.4873 28.6387C27.5232 28.4428 27.5862 28.2528 27.6746 28.0743C27.77 27.8898 27.8944 27.7217 28.0431 27.5765C28.2561 27.3674 28.5065 27.2 28.7812 27.083C29.0864 26.9615 29.413 26.9026 29.7414 26.9098C30.3343 26.9098 30.8397 27.0771 31.2573 27.4119C31.675 27.7466 31.9433 28.246 32.062 28.9101H30.7998C30.7442 28.6682 30.6243 28.4458 30.4527 28.2664C30.2871 28.0969 30.05 28.0123 29.7414 28.0127C29.5842 28.01 29.4281 28.0404 29.2833 28.1017C29.1561 28.1563 29.0424 28.2382 28.9502 28.3415C28.8901 28.4078 28.8405 28.4828 28.8032 28.5641C28.7588 28.6671 28.7274 28.7752 28.7099 28.886C28.6824 29.0495 28.6645 29.2144 28.6562 29.38C28.6444 29.5785 28.6385 29.8288 28.6385 30.131C28.6385 30.4332 28.6444 30.6835 28.6562 30.882C28.6645 31.0472 28.6824 31.2118 28.7099 31.375C28.7273 31.4858 28.7586 31.5939 28.8032 31.6968C28.8404 31.778 28.89 31.8529 28.9502 31.9189C29.0422 32.0225 29.1559 32.1046 29.2833 32.1592C29.428 32.2209 29.5841 32.2512 29.7414 32.2483C30.05 32.2483 30.2886 32.1637 30.457 31.9945C30.6312 31.8165 30.7528 31.5937 30.8084 31.3508L32.062 31.3465Z" fill="var(--fill-0, white)"/>
<path id="Vector_11" d="M33.5732 33.2939V26.9641H34.807V32.1926H37.6784V33.295L33.5732 33.2939Z" fill="var(--fill-0, white)"/>
<path id="Vector_12" d="M43.6833 30.1283C43.6833 30.4305 43.679 30.7032 43.6704 30.9464C43.6633 31.1717 43.638 31.3961 43.5948 31.6174C43.5558 31.8133 43.4915 32.0032 43.4033 32.1823C43.3081 32.3671 43.1837 32.5352 43.0347 32.6801C42.826 32.8905 42.5782 33.0582 42.3052 33.1736C42.0001 33.2954 41.6735 33.3543 41.345 33.3469C41.0148 33.3542 40.6865 33.2953 40.3794 33.1736C40.1048 33.0589 39.8554 32.8912 39.6456 32.6801C39.4967 32.5352 39.3722 32.3671 39.2771 32.1823C39.1887 32.0037 39.1256 31.8135 39.0899 31.6174C39.0497 31.3958 39.026 31.1715 39.0191 30.9464C39.0101 30.7035 39.0056 30.4309 39.0056 30.1283C39.0056 29.8258 39.0101 29.5531 39.0191 29.3103C39.026 29.085 39.0497 28.8605 39.0899 28.6387C39.1257 28.4428 39.1887 28.2528 39.2771 28.0743C39.3725 27.8898 39.4969 27.7217 39.6456 27.5765C39.8556 27.3656 40.1049 27.1979 40.3794 27.083C40.6866 26.9616 41.0148 26.9027 41.345 26.9098C41.6734 26.9026 42 26.9615 42.3052 27.083C42.5781 27.1987 42.8259 27.3663 43.0347 27.5765C43.1834 27.7217 43.3079 27.8898 43.4033 28.0743C43.4914 28.2533 43.5558 28.443 43.5948 28.6387C43.638 28.8601 43.6633 29.0847 43.6704 29.3103C43.679 29.5531 43.6833 29.8258 43.6833 30.1283ZM42.4495 30.1283C42.4495 29.8258 42.4436 29.5754 42.4318 29.3773C42.4235 29.2117 42.4056 29.0468 42.3782 28.8833C42.361 28.7745 42.3296 28.6684 42.2848 28.5679C42.2466 28.4885 42.1971 28.4152 42.1378 28.3501C42.045 28.2462 41.9316 28.1629 41.8047 28.1055C41.6598 28.0439 41.504 28.0121 41.3466 28.0121C41.1892 28.0121 41.0334 28.0439 40.8885 28.1055C40.76 28.1643 40.644 28.2474 40.5468 28.3501C40.4875 28.4152 40.438 28.4885 40.3998 28.5679C40.355 28.6684 40.3236 28.7745 40.3065 28.8833C40.2794 29.0467 40.2629 29.2117 40.2571 29.3773C40.2485 29.5758 40.2443 29.8261 40.2443 30.1283C40.2443 30.4305 40.2485 30.6808 40.2571 30.8793C40.2627 31.0431 40.2792 31.2064 40.3065 31.368C40.3239 31.4753 40.3553 31.5799 40.3998 31.6791C40.4379 31.7585 40.4874 31.8319 40.5468 31.8969C40.6445 32.0001 40.7603 32.0845 40.8885 32.1458C41.0326 32.2105 41.1887 32.244 41.3466 32.244C41.5045 32.244 41.6607 32.2105 41.8047 32.1458C41.9313 32.0859 42.0445 32.0013 42.1378 31.8969C42.1972 31.8319 42.2468 31.7585 42.2848 31.6791C42.3294 31.5799 42.3608 31.4753 42.3782 31.368C42.4058 31.2063 42.4237 31.0431 42.4318 30.8793C42.4422 30.6808 42.4474 30.4305 42.4474 30.1283H42.4495Z" fill="var(--fill-0, white)"/>
<path id="Vector_13" d="M49.8253 31.1239C49.8301 31.4388 49.7679 31.7511 49.6429 32.0402C49.5271 32.3045 49.3578 32.5419 49.1457 32.7375C48.9305 32.9329 48.68 33.0853 48.4076 33.1865C47.8183 33.3999 47.1729 33.3999 46.5837 33.1865C46.3112 33.0854 46.0607 32.933 45.8456 32.7375C45.6331 32.5421 45.4636 32.3046 45.3478 32.0402C45.2228 31.7511 45.1607 31.4388 45.1654 31.1239V26.9629H46.3992V31.08C46.3992 31.4472 46.497 31.7333 46.6926 31.9382C46.8882 32.1432 47.155 32.2454 47.4929 32.2451C47.8309 32.2451 48.0991 32.1428 48.2976 31.9382C48.4961 31.7337 48.5953 31.4476 48.5953 31.08V26.9629H49.8221L49.8253 31.1239Z" fill="var(--fill-0, white)"/>
<path id="Vector_14" d="M55.9702 30.1285C55.9702 30.3895 55.9673 30.6281 55.9616 30.8441C55.9569 31.0433 55.9421 31.2423 55.9171 31.44C55.8957 31.6099 55.8554 31.7769 55.7969 31.9378C55.7396 32.0899 55.6634 32.234 55.57 32.367C55.3684 32.667 55.0925 32.9097 54.7691 33.0713C54.4609 33.2197 54.0904 33.2939 53.6577 33.2939H51.3736V26.9641H53.6587C54.0911 26.9641 54.4616 27.0383 54.7702 27.1867C55.0931 27.3476 55.3686 27.5896 55.57 27.8889C55.6634 28.0218 55.7396 28.166 55.7969 28.318C55.8555 28.4789 55.8958 28.6459 55.9171 28.8158C55.9421 29.0134 55.9569 29.2122 55.9616 29.4113C55.9677 29.6287 55.9705 29.8678 55.9702 30.1285ZM54.7364 30.1285C54.7364 29.8781 54.7335 29.6636 54.7278 29.4848C54.724 29.3301 54.7122 29.1758 54.6924 29.0224C54.6782 28.9128 54.6529 28.8049 54.6168 28.7005C54.5847 28.6133 54.5381 28.5323 54.4789 28.4607C54.2711 28.2 53.9629 28.0697 53.5541 28.0697H52.6095V32.1953H53.552C53.9614 32.1953 54.2697 32.0648 54.4768 31.8037C54.5362 31.7324 54.5829 31.6512 54.6146 31.5639C54.6509 31.4586 54.6763 31.3499 54.6903 31.2394C54.71 31.086 54.7218 30.9316 54.7257 30.777C54.7314 30.5939 54.7343 30.3777 54.7343 30.1285H54.7364Z" fill="var(--fill-0, white)"/>
<path id="Vector_15" d="M64.6314 31.3465C64.513 32.0099 64.2448 32.5093 63.8268 32.8448C63.4087 33.1802 62.9036 33.3476 62.3114 33.3469C61.9827 33.3543 61.656 33.2953 61.3506 33.1736C61.076 33.0567 60.8258 32.8893 60.613 32.6801C60.4639 32.5352 60.3393 32.3671 60.244 32.1823C60.156 32.0035 60.0931 31.8134 60.0573 31.6174C60.0168 31.3958 59.9932 31.1715 59.9865 30.9464C59.9772 30.7035 59.9727 30.4309 59.9731 30.1283C59.9734 29.8258 59.9779 29.5531 59.9865 29.3103C59.9932 29.0849 60.0169 28.8604 60.0573 28.6387C60.0932 28.4428 60.156 28.2529 60.244 28.0743C60.3396 27.8897 60.4642 27.7217 60.613 27.5765C60.826 27.3675 61.0761 27.2001 61.3506 27.083C61.656 26.9616 61.9827 26.9026 62.3114 26.9098C62.9043 26.9098 63.4094 27.0771 63.8268 27.4119C64.2441 27.7466 64.5123 28.246 64.6314 28.9101H63.3692C63.3134 28.6683 63.1935 28.4459 63.0221 28.2664C62.8558 28.0969 62.6187 28.0123 62.3108 28.0126C62.1536 28.0099 61.9975 28.0402 61.8527 28.1017C61.7254 28.1564 61.6115 28.2383 61.5191 28.3415C61.4593 28.4079 61.41 28.483 61.3726 28.5641C61.3282 28.6671 61.2968 28.7752 61.2793 28.8859C61.2518 29.0495 61.2339 29.2144 61.2256 29.38C61.2135 29.5785 61.2074 29.8288 61.2074 30.131C61.2074 30.4332 61.2135 30.6835 61.2256 30.882C61.2339 31.0472 61.2518 31.2118 61.2793 31.375C61.2967 31.4858 61.328 31.5939 61.3726 31.6968C61.4098 31.7779 61.4592 31.8528 61.5191 31.9189C61.6114 32.0224 61.7253 32.1045 61.8527 32.1592C61.9974 32.2209 62.1535 32.2513 62.3108 32.2483C62.6187 32.2483 62.8573 32.1637 63.0264 31.9945C63.2007 31.8165 63.3223 31.5937 63.3778 31.3508L64.6314 31.3465Z" fill="var(--fill-0, white)"/>
<path id="Vector_16" d="M69.6539 33.2939L69.2784 32.1733H67.0313L66.6488 33.2939H65.3614L67.6643 26.9641H68.6336L70.9451 33.2939H69.6539ZM68.1793 28.8303L67.3794 31.1332H68.9533L68.1793 28.8303Z" fill="var(--fill-0, white)"/>
<path id="Vector_17" d="M76.7669 30.1285C76.7669 30.3895 76.764 30.628 76.7583 30.844C76.7518 31.0586 76.7374 31.2592 76.7138 31.44C76.6926 31.6099 76.6525 31.7769 76.5941 31.9378C76.5369 32.0898 76.4606 32.234 76.3672 32.367C76.1654 32.666 75.8897 32.9079 75.5669 33.0691C75.259 33.2175 74.8885 33.2918 74.4554 33.2918H72.1702V26.9619H74.4559C74.8887 26.9619 75.2592 27.0361 75.5674 27.1845C75.8903 27.3457 76.166 27.5876 76.3678 27.8867C76.4612 28.0197 76.5374 28.1638 76.5947 28.3159C76.6531 28.4768 76.6932 28.6438 76.7143 28.8137C76.7379 28.9944 76.7524 29.1929 76.7588 29.4091C76.7653 29.6253 76.7669 29.8678 76.7669 30.1285ZM75.5331 30.1285C75.5331 29.8796 75.5331 29.665 75.5245 29.4847C75.5207 29.3301 75.5088 29.1758 75.4891 29.0223C75.4749 28.9128 75.4496 28.8049 75.4135 28.7005C75.3814 28.6134 75.335 28.5324 75.2761 28.4607C75.0687 28.2 74.7605 28.0697 74.3513 28.0697H73.4083V32.1953H74.3487C74.7574 32.1953 75.0657 32.0648 75.2735 31.8037C75.3325 31.7322 75.379 31.6511 75.4108 31.5639C75.4471 31.4586 75.4724 31.3499 75.4864 31.2394C75.5062 31.086 75.518 30.9316 75.5218 30.777C75.5288 30.5925 75.5288 30.3774 75.5288 30.1285H75.5331Z" fill="var(--fill-0, white)"/>
<path id="Vector_18" d="M32.062 31.3465C31.9433 32.0099 31.675 32.5093 31.2573 32.8448C30.8397 33.1802 30.3343 33.3476 29.7414 33.3469C29.4129 33.3543 29.0864 33.2954 28.7812 33.1736C28.5064 33.0569 28.256 32.8895 28.0431 32.6801C27.8941 32.5352 27.7697 32.3671 27.6746 32.1823C27.5861 32.0037 27.5231 31.8135 27.4873 31.6174C27.4471 31.3958 27.4235 31.1715 27.4165 30.9464C27.4076 30.7035 27.4031 30.4309 27.4031 30.1283C27.4031 29.8258 27.4076 29.5531 27.4165 29.3103C27.4235 29.085 27.4472 28.8605 27.4873 28.6387C27.5232 28.4428 27.5862 28.2528 27.6746 28.0743C27.77 27.8898 27.8944 27.7217 28.0431 27.5765C28.2561 27.3674 28.5065 27.2 28.7812 27.083C29.0864 26.9615 29.413 26.9026 29.7414 26.9098C30.3343 26.9098 30.8397 27.0771 31.2573 27.4119C31.675 27.7466 31.9433 28.246 32.062 28.9101H30.7998C30.7442 28.6682 30.6243 28.4458 30.4527 28.2664C30.2871 28.0969 30.05 28.0123 29.7414 28.0127C29.5842 28.01 29.4281 28.0404 29.2833 28.1017C29.1561 28.1563 29.0424 28.2382 28.9502 28.3415C28.8901 28.4078 28.8405 28.4828 28.8032 28.5641C28.7588 28.6671 28.7274 28.7752 28.7099 28.886C28.6824 29.0495 28.6645 29.2144 28.6562 29.38C28.6444 29.5785 28.6385 29.8288 28.6385 30.131C28.6385 30.4332 28.6444 30.6835 28.6562 30.882C28.6645 31.0472 28.6824 31.2118 28.7099 31.375C28.7273 31.4858 28.7586 31.5939 28.8032 31.6968C28.8404 31.778 28.89 31.8529 28.9502 31.9189C29.0422 32.0225 29.1559 32.1046 29.2833 32.1592C29.428 32.2209 29.5841 32.2512 29.7414 32.2483C30.05 32.2483 30.2886 32.1637 30.457 31.9945C30.6312 31.8165 30.7528 31.5937 30.8084 31.3508L32.062 31.3465Z" fill="var(--fill-0, white)"/>
<path id="Vector_19" d="M33.5732 33.2939V26.9641H34.807V32.1926H37.6784V33.295L33.5732 33.2939Z" fill="var(--fill-0, white)"/>
<path id="Vector_20" d="M43.6833 30.1283C43.6833 30.4305 43.679 30.7032 43.6704 30.9464C43.6633 31.1717 43.638 31.3961 43.5948 31.6174C43.5558 31.8133 43.4915 32.0032 43.4033 32.1823C43.3081 32.3671 43.1837 32.5352 43.0347 32.6801C42.826 32.8905 42.5782 33.0582 42.3052 33.1736C42.0001 33.2954 41.6735 33.3543 41.345 33.3469C41.0148 33.3542 40.6865 33.2953 40.3794 33.1736C40.1048 33.0589 39.8554 32.8912 39.6456 32.6801C39.4967 32.5352 39.3722 32.3671 39.2771 32.1823C39.1887 32.0037 39.1256 31.8135 39.0899 31.6174C39.0497 31.3958 39.026 31.1715 39.0191 30.9464C39.0101 30.7035 39.0056 30.4309 39.0056 30.1283C39.0056 29.8258 39.0101 29.5531 39.0191 29.3103C39.026 29.085 39.0497 28.8605 39.0899 28.6387C39.1257 28.4428 39.1887 28.2528 39.2771 28.0743C39.3725 27.8898 39.4969 27.7217 39.6456 27.5765C39.8556 27.3656 40.1049 27.1979 40.3794 27.083C40.6866 26.9616 41.0148 26.9027 41.345 26.9098C41.6734 26.9026 42 26.9615 42.3052 27.083C42.5781 27.1987 42.8259 27.3663 43.0347 27.5765C43.1834 27.7217 43.3079 27.8898 43.4033 28.0743C43.4914 28.2533 43.5558 28.443 43.5948 28.6387C43.638 28.8601 43.6633 29.0847 43.6704 29.3103C43.679 29.5531 43.6833 29.8258 43.6833 30.1283ZM42.4495 30.1283C42.4495 29.8258 42.4436 29.5754 42.4318 29.3773C42.4235 29.2117 42.4056 29.0468 42.3782 28.8833C42.361 28.7745 42.3296 28.6684 42.2848 28.5679C42.2466 28.4885 42.1971 28.4152 42.1378 28.3501C42.045 28.2462 41.9316 28.1629 41.8047 28.1055C41.6598 28.0439 41.504 28.0121 41.3466 28.0121C41.1892 28.0121 41.0334 28.0439 40.8885 28.1055C40.76 28.1643 40.644 28.2474 40.5468 28.3501C40.4875 28.4152 40.438 28.4885 40.3998 28.5679C40.355 28.6684 40.3236 28.7745 40.3065 28.8833C40.2794 29.0467 40.2629 29.2117 40.2571 29.3773C40.2485 29.5758 40.2443 29.8261 40.2443 30.1283C40.2443 30.4305 40.2485 30.6808 40.2571 30.8793C40.2627 31.0431 40.2792 31.2064 40.3065 31.368C40.3239 31.4753 40.3553 31.5799 40.3998 31.6791C40.4379 31.7585 40.4874 31.8319 40.5468 31.8969C40.6445 32.0001 40.7603 32.0845 40.8885 32.1458C41.0326 32.2105 41.1887 32.244 41.3466 32.244C41.5045 32.244 41.6607 32.2105 41.8047 32.1458C41.9313 32.0859 42.0445 32.0013 42.1378 31.8969C42.1972 31.8319 42.2468 31.7585 42.2848 31.6791C42.3294 31.5799 42.3608 31.4753 42.3782 31.368C42.4058 31.2063 42.4237 31.0431 42.4318 30.8793C42.4422 30.6808 42.4474 30.4305 42.4474 30.1283H42.4495Z" fill="var(--fill-0, white)"/>
<path id="Vector_21" d="M49.8253 31.1239C49.8301 31.4388 49.7679 31.7511 49.6429 32.0402C49.5271 32.3045 49.3578 32.5419 49.1457 32.7375C48.9305 32.9329 48.68 33.0853 48.4076 33.1865C47.8183 33.3999 47.1729 33.3999 46.5837 33.1865C46.3112 33.0854 46.0607 32.933 45.8456 32.7375C45.6331 32.5421 45.4636 32.3046 45.3478 32.0402C45.2228 31.7511 45.1607 31.4388 45.1654 31.1239V26.9629H46.3992V31.08C46.3992 31.4472 46.497 31.7333 46.6926 31.9382C46.8882 32.1432 47.155 32.2454 47.4929 32.2451C47.8309 32.2451 48.0991 32.1428 48.2976 31.9382C48.4961 31.7337 48.5953 31.4476 48.5953 31.08V26.9629H49.8221L49.8253 31.1239Z" fill="var(--fill-0, white)"/>
<path id="Vector_22" d="M55.9702 30.1285C55.9702 30.3895 55.9673 30.6281 55.9616 30.8441C55.9569 31.0433 55.9421 31.2423 55.9171 31.44C55.8957 31.6099 55.8554 31.7769 55.7969 31.9378C55.7396 32.0899 55.6634 32.234 55.57 32.367C55.3684 32.667 55.0925 32.9097 54.7691 33.0713C54.4609 33.2197 54.0904 33.2939 53.6577 33.2939H51.3736V26.9641H53.6587C54.0911 26.9641 54.4616 27.0383 54.7702 27.1867C55.0931 27.3476 55.3686 27.5896 55.57 27.8889C55.6634 28.0218 55.7396 28.166 55.7969 28.318C55.8555 28.4789 55.8958 28.6459 55.9171 28.8158C55.9421 29.0134 55.9569 29.2122 55.9616 29.4113C55.9677 29.6287 55.9705 29.8678 55.9702 30.1285ZM54.7364 30.1285C54.7364 29.8781 54.7335 29.6636 54.7278 29.4848C54.724 29.3301 54.7122 29.1758 54.6924 29.0224C54.6782 28.9128 54.6529 28.8049 54.6168 28.7005C54.5847 28.6133 54.5381 28.5323 54.4789 28.4607C54.2711 28.2 53.9629 28.0697 53.5541 28.0697H52.6095V32.1953H53.552C53.9614 32.1953 54.2697 32.0648 54.4768 31.8037C54.5362 31.7324 54.5829 31.6512 54.6146 31.5639C54.6509 31.4586 54.6763 31.3499 54.6903 31.2394C54.71 31.086 54.7218 30.9316 54.7257 30.777C54.7314 30.5939 54.7343 30.3777 54.7343 30.1285H54.7364Z" fill="var(--fill-0, white)"/>
<path id="Vector_23" d="M64.6314 31.3465C64.513 32.0099 64.2448 32.5093 63.8268 32.8448C63.4087 33.1802 62.9036 33.3476 62.3114 33.3469C61.9827 33.3543 61.656 33.2953 61.3506 33.1736C61.076 33.0567 60.8258 32.8893 60.613 32.6801C60.4639 32.5352 60.3393 32.3671 60.244 32.1823C60.156 32.0035 60.0931 31.8134 60.0573 31.6174C60.0168 31.3958 59.9932 31.1715 59.9865 30.9464C59.9772 30.7035 59.9727 30.4309 59.9731 30.1283C59.9734 29.8258 59.9779 29.5531 59.9865 29.3103C59.9932 29.0849 60.0169 28.8604 60.0573 28.6387C60.0932 28.4428 60.156 28.2529 60.244 28.0743C60.3396 27.8897 60.4642 27.7217 60.613 27.5765C60.826 27.3675 61.0761 27.2001 61.3506 27.083C61.656 26.9616 61.9827 26.9026 62.3114 26.9098C62.9043 26.9098 63.4094 27.0771 63.8268 27.4119C64.2441 27.7466 64.5123 28.246 64.6314 28.9101H63.3692C63.3134 28.6683 63.1935 28.4459 63.0221 28.2664C62.8558 28.0969 62.6187 28.0123 62.3108 28.0126C62.1536 28.0099 61.9975 28.0402 61.8527 28.1017C61.7254 28.1564 61.6115 28.2383 61.5191 28.3415C61.4593 28.4079 61.41 28.483 61.3726 28.5641C61.3282 28.6671 61.2968 28.7752 61.2793 28.8859C61.2518 29.0495 61.2339 29.2144 61.2256 29.38C61.2135 29.5785 61.2074 29.8288 61.2074 30.131C61.2074 30.4332 61.2135 30.6835 61.2256 30.882C61.2339 31.0472 61.2518 31.2118 61.2793 31.375C61.2967 31.4858 61.328 31.5939 61.3726 31.6968C61.4098 31.7779 61.4592 31.8528 61.5191 31.9189C61.6114 32.0224 61.7253 32.1045 61.8527 32.1592C61.9974 32.2209 62.1535 32.2513 62.3108 32.2483C62.6187 32.2483 62.8573 32.1637 63.0264 31.9945C63.2007 31.8165 63.3223 31.5937 63.3778 31.3508L64.6314 31.3465Z" fill="var(--fill-0, white)"/>
<path id="Vector_24" d="M69.6539 33.2939L69.2784 32.1733H67.0313L66.6488 33.2939H65.3614L67.6643 26.9641H68.6336L70.9451 33.2939H69.6539ZM68.1793 28.8303L67.3794 31.1332H68.9533L68.1793 28.8303Z" fill="var(--fill-0, white)"/>
<path id="Vector_25" d="M76.7669 30.1285C76.7669 30.3895 76.764 30.628 76.7583 30.844C76.7518 31.0586 76.7374 31.2592 76.7138 31.44C76.6926 31.6099 76.6525 31.7769 76.5941 31.9378C76.5369 32.0898 76.4606 32.234 76.3672 32.367C76.1654 32.666 75.8897 32.9079 75.5669 33.0691C75.259 33.2175 74.8885 33.2918 74.4554 33.2918H72.1702V26.9619H74.4559C74.8887 26.9619 75.2592 27.0361 75.5674 27.1845C75.8903 27.3457 76.166 27.5876 76.3678 27.8867C76.4612 28.0197 76.5374 28.1638 76.5947 28.3159C76.6531 28.4768 76.6932 28.6438 76.7143 28.8137C76.7379 28.9944 76.7524 29.1929 76.7588 29.4091C76.7653 29.6253 76.7669 29.8678 76.7669 30.1285ZM75.5331 30.1285C75.5331 29.8796 75.5331 29.665 75.5245 29.4847C75.5207 29.3301 75.5088 29.1758 75.4891 29.0223C75.4749 28.9128 75.4496 28.8049 75.4135 28.7005C75.3814 28.6134 75.335 28.5324 75.2761 28.4607C75.0687 28.2 74.7605 28.0697 74.3513 28.0697H73.4083V32.1953H74.3487C74.7574 32.1953 75.0657 32.0648 75.2735 31.8037C75.3325 31.7322 75.379 31.6511 75.4108 31.5639C75.4471 31.4586 75.4724 31.3499 75.4864 31.2394C75.5062 31.086 75.518 30.9316 75.5218 30.777C75.5288 30.5925 75.5288 30.3774 75.5288 30.1285H75.5331Z" fill="var(--fill-0, white)"/>
<path id="Vector_26" d="M15.5343 33.3034C15.5343 33.3034 13.8547 29.7029 14.7516 24.6058C15.9221 17.959 27.1221 12.5293 27.1221 12.5293C11.6194 17.3963 5.47629 23.519 15.5343 33.3034Z" fill="var(--fill-0, #C70A1A)"/>
<path id="Vector_27" d="M15.5338 33.3036C15.5338 33.3036 12.7315 27.7216 14.3225 21.6847C16.5219 13.3164 30.3783 7.4404 30.3783 7.4404C9.87716 11.5623 0.863064 22.249 15.5338 33.3036Z" fill="var(--fill-0, #9E0F05)"/>
<path id="Vector_28" d="M15.5352 33.3052C14.4087 31.6375 9.83621 25.8677 10.8683 19.2015C12.1965 10.6187 33.0259 2.35777 33.0259 2.35777C7.08113 8.71227 -11.5623 20.2336 15.5384 33.3095" fill="var(--fill-0, #ED0000)"/>
</g>
</svg>
